<?xml version="1.0" encoding="UTF-8" standalone="no"?>
<svg
   xmlns:dc="http://purl.org/dc/elements/1.1/"
   xmlns:cc="http://creativecommons.org/ns#"
   xmlns:rdf="http://www.w3.org/1999/02/22-rdf-syntax-ns#"
   xmlns:svg="http://www.w3.org/2000/svg"
   xmlns="http://www.w3.org/2000/svg"
   xmlns:xlink="http://www.w3.org/1999/xlink"
   xmlns:sodipodi="http://sodipodi.sourceforge.net/DTD/sodipodi-0.dtd"
   xmlns:inkscape="http://www.inkscape.org/namespaces/inkscape"
   width="223.11119mm"
   height="53.472969mm"
   viewBox="0 0 223.1112 53.472967"
   version="1.1"
   id="svg8"
   inkscape:version="1.0.2 (e86c870879, 2021-01-15)"
   sodipodi:docname="renexo_cloud.svg">
  <defs
     id="defs2">
    <linearGradient
       id="linearGradient681"
       inkscape:collect="always">
      <stop
         id="stop677"
         offset="0"
         style="stop-color:#cccccc;stop-opacity:1;" />
      <stop
         id="stop679"
         offset="1"
         style="stop-color:#ffffff;stop-opacity:1" />
    </linearGradient>
    <linearGradient
       id="linearGradient675"
       inkscape:collect="always">
      <stop
         id="stop671"
         offset="0"
         style="stop-color:#b3b3b3;stop-opacity:1;" />
      <stop
         id="stop673"
         offset="1"
         style="stop-color:#ffffff;stop-opacity:1" />
    </linearGradient>
    <linearGradient
       inkscape:collect="always"
       id="linearGradient880">
      <stop
         style="stop-color:#cccccc;stop-opacity:1;"
         offset="0"
         id="stop876" />
      <stop
         style="stop-color:#cccccc;stop-opacity:0;"
         offset="1"
         id="stop878" />
    </linearGradient>
    <linearGradient
       inkscape:collect="always"
       id="linearGradient872">
      <stop
         style="stop-color:#b3b3b3;stop-opacity:1;"
         offset="0"
         id="stop867" />
      <stop
         style="stop-color:#b3b3b3;stop-opacity:0;"
         offset="1"
         id="stop870" />
    </linearGradient>
    <linearGradient
       id="linearGradient862"
       inkscape:collect="always">
      <stop
         id="stop858"
         offset="0"
         style="stop-color:#2f9ad5;stop-opacity:1" />
      <stop
         id="stop860"
         offset="1"
         style="stop-color:#ffffff;stop-opacity:1" />
    </linearGradient>
    <linearGradient
       inkscape:collect="always"
       xlink:href="#linearGradient862"
       id="linearGradient897"
       gradientUnits="userSpaceOnUse"
       x1="263.49591"
       y1="99.658257"
       x2="147.16051"
       y2="-107.83549"
       gradientTransform="matrix(0.26013379,0,0,0.26013379,35.27518,251.55446)" />
    <linearGradient
       inkscape:collect="always"
       xlink:href="#linearGradient892"
       id="linearGradient886"
       gradientUnits="userSpaceOnUse"
       gradientTransform="matrix(0.22504232,0,0,0.23038936,45.021756,253.96273)"
       x1="242.52644"
       y1="99.518547"
       x2="262.82568"
       y2="0.19723639" />
    <linearGradient
       inkscape:collect="always"
       id="linearGradient892">
      <stop
         style="stop-color:#2f9ad5;stop-opacity:0"
         offset="0"
         id="stop888" />
      <stop
         style="stop-color:#ffffff;stop-opacity:1"
         offset="1"
         id="stop890" />
    </linearGradient>
    <linearGradient
       inkscape:collect="always"
       xlink:href="#linearGradient675"
       id="linearGradient921"
       gradientUnits="userSpaceOnUse"
       x1="90.911934"
       y1="28.506428"
       x2="169.90607"
       y2="107.50056"
       gradientTransform="matrix(0.26013379,0,0,0.26013379,24.651856,246.36633)" />
    <linearGradient
       inkscape:collect="always"
       xlink:href="#linearGradient872"
       id="linearGradient923"
       gradientUnits="userSpaceOnUse"
       x1="97.408768"
       y1="-1.6078815"
       x2="169.90607"
       y2="107.50056"
       gradientTransform="matrix(0.26013379,0,0,0.26013379,24.651856,246.36633)" />
    <linearGradient
       inkscape:collect="always"
       xlink:href="#linearGradient681"
       id="linearGradient925"
       gradientUnits="userSpaceOnUse"
       x1="296.04398"
       y1="32.020153"
       x2="228.70599"
       y2="83.96666"
       gradientTransform="matrix(0.26013379,0,0,0.26013379,44.386014,251.8503)" />
    <linearGradient
       inkscape:collect="always"
       xlink:href="#linearGradient880"
       id="linearGradient927"
       gradientUnits="userSpaceOnUse"
       x1="265.60367"
       y1="21.523495"
       x2="206.13818"
       y2="44.079365"
       gradientTransform="matrix(0.26013379,0,0,0.26013379,44.659067,251.71377)" />
    <linearGradient
       inkscape:collect="always"
       xlink:href="#linearGradient892"
       id="linearGradient701"
       gradientUnits="userSpaceOnUse"
       gradientTransform="matrix(0.23735191,0,0,0.2424908,41.050651,254.1743)"
       x1="242.52644"
       y1="99.518547"
       x2="410.07745"
       y2="180.6133" />
  </defs>
  <sodipodi:namedview
     id="base"
     pagecolor="#ffffff"
     bordercolor="#666666"
     borderopacity="1.0"
     inkscape:pageopacity="0.0"
     inkscape:pageshadow="2"
     inkscape:zoom="2.0409013"
     inkscape:cx="421.62745"
     inkscape:cy="101.05129"
     inkscape:document-units="mm"
     inkscape:current-layer="layer1"
     showgrid="false"
     fit-margin-top="0"
     fit-margin-left="0"
     fit-margin-right="0"
     fit-margin-bottom="0"
     inkscape:window-width="1920"
     inkscape:window-height="1022"
     inkscape:window-x="0"
     inkscape:window-y="32"
     inkscape:window-maximized="1"
     inkscape:snap-global="false"
     showguides="true"
     inkscape:guide-bbox="true"
     inkscape:document-rotation="0" />
  <metadata
     id="metadata5">
    <rdf:RDF>
      <cc:Work
         rdf:about="">
        <dc:format>image/svg+xml</dc:format>
        <dc:type
           rdf:resource="http://purl.org/dc/dcmitype/StillImage" />
        <dc:title></dc:title>
      </cc:Work>
    </rdf:RDF>
  </metadata>
  <g
     inkscape:label="Camada 1"
     inkscape:groupmode="layer"
     id="layer1"
     transform="translate(80.91249,551.25756)">
    <g
       id="g97"
       transform="translate(4.0424178,-35.542347)">
      <rect
         rx="6"
         ry="6"
         y="-503.50629"
         x="-19.607067"
         height="40.698421"
         width="157.76335"
         id="rect41"
         style="fill:#162d50;fill-opacity:1;fill-rule:nonzero;stroke:none;stroke-width:0.157982;stroke-miterlimit:4;stroke-dasharray:none;stroke-dashoffset:0;stroke-opacity:1" />
      <g
         transform="translate(-108.95643,-761.43101)"
         id="g711">
        <path
           id="path2"
           d="m 102.62696,262.12706 c -1.06863,0 -2.11307,0.10691 -3.121866,0.30904 -3.108599,-9.3323 -11.973958,-16.06977 -22.431336,-16.06977 -8.782377,0 -16.439415,4.75265 -20.510769,11.80045 -0.239063,-0.009 -0.478647,-0.0182 -0.720311,-0.0182 -6.111583,0 -11.498434,3.07374 -14.673887,7.74601 -0.848816,-0.16051 -1.723906,-0.24791 -2.619807,-0.24791 -7.674727,0 -13.896347,6.16569 -13.896347,13.77226 0,7.60631 6.22162,13.77148 13.896607,13.77148 h 17.281988 0.01171 0.01171 21.207408 0.01171 0.01223 25.53083 0.012 c 8.65725,0 15.67306,-6.95337 15.67306,-15.53258 0,-8.57714 -7.01581,-15.53077 -15.67306,-15.53077 z"
           inkscape:connector-curvature="0"
           style="fill:url(#linearGradient921);fill-opacity:1;stroke:none;stroke-width:0.260134" />
        <path
           id="path4"
           d="M 102.62696,293.84075 H 38.548203 c -8.020965,0 -14.546681,-6.46953 -14.546681,-14.42182 0,-7.95229 6.525716,-14.42208 14.547202,-14.42208 0.769996,0 1.549617,0.0627 2.323255,0.18626 3.440269,-4.8195 9.004791,-7.68461 14.970439,-7.68461 0.119141,0 0.237762,0.002 0.356123,0.005 4.367646,-7.2814 12.32774,-11.7877 20.875737,-11.7877 10.30598,0 19.422889,6.39799 22.864719,15.98028 0.887053,-0.14594 1.789203,-0.21956 2.689783,-0.21956 9.00037,0 16.32262,7.25904 16.32262,16.18189 -0.003,8.92258 -7.32537,16.18292 -16.326,16.18292 z M 38.548203,266.29778 c -7.304296,0 -13.246533,5.88631 -13.246533,13.12193 0,7.23562 5.942237,13.12115 13.246273,13.12115 H 102.6267 c 8.28318,0 15.02195,-6.67581 15.02195,-14.88147 0,-8.2054 -6.73877,-14.88122 -15.02195,-14.88122 -1.0049,0 -2.0124,0.0996 -2.99414,0.2963 l -0.56319,0.11289 -0.181573,-0.54498 c -3.113802,-9.34504 -11.88031,-15.62415 -21.81482,-15.62415 -8.215285,0 -15.858536,4.39704 -19.947579,11.47528 l -0.196141,0.33973 -0.392022,-0.0153 c -0.230738,-0.009 -0.461997,-0.0177 -0.695077,-0.0177 -5.676119,0 -10.960737,2.78915 -14.13593,7.46115 l -0.239584,0.35249 -0.419075,-0.0791 c -0.832428,-0.1566 -1.673441,-0.2362 -2.501187,-0.2362 z"
           inkscape:connector-curvature="0"
           style="fill:url(#linearGradient923);fill-opacity:1;stroke:none;stroke-width:0.260134" />
        <path
           id="path885"
           d="M 122.63417,299.18819 H 58.555414 c -8.020965,0 -14.546681,-6.46953 -14.546681,-14.42182 0,-7.95229 6.525716,-14.42208 14.547201,-14.42208 0.769996,0 1.549617,0.0627 2.323255,0.18626 3.44027,-4.8195 9.004791,-7.68461 14.97044,-7.68461 0.119141,0 0.237762,0.002 0.356123,0.005 4.367646,-7.28141 12.32774,-11.7877 20.875736,-11.7877 10.305982,0 19.422892,6.39799 22.864722,15.98027 0.88706,-0.14593 1.7892,-0.21955 2.68978,-0.21955 9.00037,0 16.32262,7.25903 16.32262,16.18188 -0.003,8.92259 -7.32537,16.18293 -16.326,16.18293 z M 58.555414,271.64522 c -7.304297,0 -13.246533,5.88631 -13.246533,13.12193 0,7.23562 5.942236,13.12115 13.246273,13.12115 h 64.078756 c 8.28318,0 15.02195,-6.67582 15.02195,-14.88148 0,-8.2054 -6.73877,-14.88121 -15.02195,-14.88121 -1.00489,0 -2.01239,0.0996 -2.99414,0.29629 l -0.56319,0.1129 -0.18157,-0.54498 c -3.1138,-9.34505 -11.88031,-15.62415 -21.814822,-15.62415 -8.215285,0 -15.858536,4.39704 -19.947579,11.47528 l -0.196141,0.33973 -0.392022,-0.0153 c -0.230739,-0.009 -0.461998,-0.0177 -0.695077,-0.0177 -5.67612,0 -10.960738,2.78916 -14.135931,7.46116 l -0.239583,0.35248 -0.419075,-0.0791 c -0.832429,-0.1566 -1.673441,-0.2362 -2.501187,-0.2362 z"
           inkscape:connector-curvature="0"
           style="fill:url(#linearGradient927);fill-opacity:1;stroke:none;stroke-width:0.260134" />
        <path
           id="path883"
           d="m 122.36111,267.61103 c -1.06863,0 -2.11306,0.10691 -3.12186,0.30903 -3.1086,-9.33229 -11.97396,-16.06976 -22.431335,-16.06976 -8.782377,0 -16.439415,4.75264 -20.510769,11.80045 -0.239063,-0.009 -0.478646,-0.0182 -0.72031,-0.0182 -6.111583,0 -11.498434,3.07374 -14.673887,7.746 -0.848817,-0.1605 -1.723907,-0.2479 -2.619808,-0.2479 -7.674727,0 -13.896347,6.16569 -13.896347,13.77226 0,7.60631 6.22162,13.77148 13.896608,13.77148 h 17.281988 0.01171 0.01171 21.207407 0.01171 0.01223 25.530823 0.012 c 8.65726,0 15.67307,-6.95337 15.67307,-15.53259 0,-8.57713 -7.01581,-15.53076 -15.67307,-15.53076 z"
           inkscape:connector-curvature="0"
           style="fill:url(#linearGradient925);fill-opacity:1;stroke:none;stroke-width:0.260134" />
        <path
           style="fill:url(#linearGradient897);fill-opacity:1;stroke:#ffffff;stroke-width:0.260134"
           inkscape:connector-curvature="0"
           d="m 113.25028,267.31519 c -1.06863,0 -2.11306,0.10691 -3.12186,0.30903 -3.1086,-9.33229 -11.97396,-16.06976 -22.431339,-16.06976 -8.782377,0 -16.439415,4.75264 -20.510769,11.80045 -0.239063,-0.009 -0.478646,-0.0182 -0.72031,-0.0182 -6.111583,0 -11.498434,3.07374 -14.673887,7.746 -0.848817,-0.1605 -1.723907,-0.2479 -2.619808,-0.2479 -7.674727,0 -13.896347,6.16569 -13.896347,13.77226 0,7.60631 6.22162,13.77148 13.896608,13.77148 h 17.281988 0.01171 0.01171 21.207407 0.01171 0.01223 25.530827 0.012 c 8.65726,0 15.67307,-6.95337 15.67307,-15.53259 0,-8.57713 -7.01581,-15.53076 -15.67307,-15.53076 z"
           id="path831" />
        <path
           style="fill:#82c2e6;fill-opacity:1;stroke:none;stroke-width:0.260134"
           inkscape:connector-curvature="0"
           d="M 113.25028,299.02888 H 49.171527 c -8.020965,0 -14.546681,-6.46953 -14.546681,-14.42182 0,-7.95229 6.525716,-14.42208 14.547201,-14.42208 0.769996,0 1.549617,0.0627 2.323255,0.18626 3.44027,-4.8195 9.004791,-7.68461 14.97044,-7.68461 0.119141,0 0.237762,0.002 0.356123,0.005 4.367646,-7.28141 12.32774,-11.7877 20.875736,-11.7877 10.305981,0 19.422889,6.39799 22.864719,15.98027 0.88706,-0.14593 1.7892,-0.21955 2.68978,-0.21955 9.00038,0 16.32262,7.25903 16.32262,16.18188 -0.003,8.92259 -7.32537,16.18293 -16.326,16.18293 z M 49.171527,271.48591 c -7.304297,0 -13.246533,5.88631 -13.246533,13.12193 0,7.23562 5.942236,13.12115 13.246273,13.12115 h 64.078753 c 8.28319,0 15.02195,-6.67582 15.02195,-14.88148 0,-8.2054 -6.73876,-14.88121 -15.02195,-14.88121 -1.00489,0 -2.01239,0.0996 -2.99414,0.29629 l -0.56319,0.1129 -0.18157,-0.54498 c -3.1138,-9.34505 -11.88031,-15.62415 -21.814819,-15.62415 -8.215285,0 -15.858536,4.39704 -19.947579,11.47528 l -0.196141,0.33973 -0.392022,-0.0153 c -0.230739,-0.009 -0.461998,-0.0177 -0.695077,-0.0177 -5.67612,0 -10.960738,2.78916 -14.135931,7.46116 l -0.239583,0.35248 -0.419075,-0.0791 c -0.832429,-0.1566 -1.673441,-0.2362 -2.501187,-0.2362 z"
           id="path833" />
        <path
           id="path884"
           d="m 112.47821,267.92133 c -0.92448,0 -1.82803,0.0948 -2.70074,0.27369 -2.68925,-8.2652 -10.358698,-14.23229 -19.405401,-14.23229 -7.597657,0 -14.22178,4.20922 -17.743914,10.45116 -0.206821,-0.008 -0.414081,-0.0161 -0.623142,-0.0161 -5.287141,0 -9.947319,2.72228 -12.694416,6.8603 -0.734308,-0.14214 -1.491349,-0.21955 -2.266396,-0.21955 -6.639427,0 -12.021767,5.46069 -12.021767,12.1975 0,6.73657 5.38234,12.19681 12.021992,12.19681 h 14.950681 0.01013 0.01013 18.346579 0.01013 0.01056 22.086784 0.0104 c 7.48941,0 15.85019,-6.15831 15.85019,-13.75655 0,-7.59638 -7.13871,-14.98327 -15.85019,-13.75493 z"
           inkscape:connector-curvature="0"
           style="fill:url(#linearGradient886);fill-opacity:1;stroke:none;stroke-width:0.2277"
           sodipodi:nodetypes="ccscscssscccccccsscc" />
        <path
           sodipodi:nodetypes="ccscscssscccccccsscc"
           style="fill:url(#linearGradient701);fill-opacity:1;stroke:none;stroke-width:0.239908"
           inkscape:connector-curvature="0"
           d="m 112.1969,268.86609 c -0.97504,0 -1.92801,0.0998 -2.84846,0.28807 -2.83635,-8.69934 -10.925312,-14.97986 -20.466859,-14.97986 -8.013242,0 -14.999699,4.43031 -18.714489,11.00011 -0.218134,-0.008 -0.436732,-0.017 -0.657228,-0.017 -5.576342,0 -10.491427,2.86526 -13.388789,7.22063 -0.774472,-0.1496 -1.572923,-0.23108 -2.390363,-0.23108 -7.002598,0 -12.679347,5.74751 -12.679347,12.83818 0,7.09042 5.676749,12.83747 12.679583,12.83747 h 15.768468 0.01069 0.01068 19.350119 0.01068 0.01113 23.294905 0.011 c 11.41333,0 16.66392,-6.85565 16.66392,-14.853 0,-7.99538 -6.99672,-15.66345 -16.18471,-14.37061 z"
           id="path699" />
      </g>
      <g
         transform="matrix(1.4505617,0,0,1.4505617,-124.02652,-729.9799)"
         id="text47"
         style="font-style:normal;font-weight:normal;font-size:20.4029px;line-height:1.25;font-family:sans-serif;letter-spacing:0px;word-spacing:0px;fill:#ffffff;fill-opacity:1;stroke:none;stroke-width:0.510072"
         aria-label="Cloud">
        <path
           inkscape:connector-curvature="0"
           id="path46"
           style="font-style:normal;font-variant:normal;font-weight:normal;font-stretch:normal;font-family:'Free Avant Garde';-inkscape-font-specification:'Free Avant Garde';fill:#ffffff;stroke-width:0.510072"
           d="m 127.48563,173.73743 c -0.63249,0.79571 -0.99974,1.20377 -1.50981,1.59142 -0.99974,0.79571 -2.36674,1.24458 -3.73373,1.24458 -3.4889,0 -6.36571,-2.89721 -6.36571,-6.42691 0,-3.63172 2.7544,-6.40651 6.3453,-6.40651 1.30579,0 2.52996,0.34685 3.52971,1.02014 0.67329,0.42846 1.08135,0.87733 1.65263,1.77505 h 1.69344 c -1.16297,-2.59116 -3.81534,-4.18259 -6.93698,-4.18259 -4.48864,0 -7.81431,3.34608 -7.81431,7.85512 0,4.40702 3.40728,7.75309 7.91632,7.75309 3.06043,0 5.38636,-1.4282 6.89618,-4.22339 z" />
        <path
           inkscape:connector-curvature="0"
           id="path48"
           style="font-style:normal;font-variant:normal;font-weight:normal;font-stretch:normal;font-family:'Free Avant Garde';-inkscape-font-specification:'Free Avant Garde';fill:#ffffff;stroke-width:0.510072"
           d="m 131.31117,177.69559 h 1.50982 v -15.07774 h -1.50982 z" />
        <path
           inkscape:connector-curvature="0"
           id="path50"
           style="font-style:normal;font-variant:normal;font-weight:normal;font-stretch:normal;font-family:'Free Avant Garde';-inkscape-font-specification:'Free Avant Garde';fill:#ffffff;stroke-width:0.510072"
           d="m 140.80298,166.26997 c -3.30527,0 -5.85563,2.50955 -5.85563,5.77402 0,3.42768 2.50956,5.91683 5.97805,5.91683 3.26446,0 5.672,-2.46875 5.672,-5.81482 0,-3.40728 -2.44834,-5.87603 -5.79442,-5.87603 z m 0,1.38739 c 2.44835,0 4.26421,1.91788 4.26421,4.50904 0,2.55036 -1.75465,4.40703 -4.1826,4.40703 -2.57076,0 -4.40702,-1.87707 -4.40702,-4.48864 0,-2.52996 1.85666,-4.42743 4.32541,-4.42743 z" />
        <path
           inkscape:connector-curvature="0"
           id="path52"
           style="font-style:normal;font-variant:normal;font-weight:normal;font-stretch:normal;font-family:'Free Avant Garde';-inkscape-font-specification:'Free Avant Garde';fill:#ffffff;stroke-width:0.510072"
           d="m 158.55956,166.5352 h -1.50982 v 5.73322 c 0,1.36699 -0.20403,2.22391 -0.67329,2.91761 -0.63249,0.87733 -1.63223,1.3874 -2.7952,1.3874 -1.24458,0 -2.30553,-0.51007 -2.8156,-1.4078 -0.34685,-0.57128 -0.53047,-1.46901 -0.53047,-2.61157 v -6.01886 h -1.50982 v 6.01886 c 0,1.65263 0.28564,2.8156 0.87733,3.63171 0.83651,1.16297 2.18311,1.77505 3.85614,1.77505 1.73425,0 2.83601,-0.61208 3.59091,-1.99948 v 1.73425 h 1.50982 z" />
        <path
           inkscape:connector-curvature="0"
           id="path54"
           style="font-style:normal;font-variant:normal;font-weight:normal;font-stretch:normal;font-family:'Free Avant Garde';-inkscape-font-specification:'Free Avant Garde';fill:#ffffff;stroke-width:0.510072"
           d="m 172.52374,162.61785 h -1.50981 v 5.69241 c -1.10176,-1.32619 -2.63197,-2.04029 -4.38662,-2.04029 -3.36648,0 -5.93724,2.52996 -5.93724,5.85563 0,3.30527 2.63197,5.83522 6.08006,5.83522 1.85666,0 3.12164,-0.67329 4.2438,-2.28512 v 2.01989 h 1.50981 z m -5.93724,5.03951 c 2.46875,0 4.48864,1.97908 4.48864,4.42743 0,2.44835 -1.95868,4.48864 -4.34582,4.48864 -2.55036,0 -4.50904,-1.95868 -4.50904,-4.50904 0,-2.44835 1.93828,-4.40703 4.36622,-4.40703 z" />
      </g>
    </g>
    <g
       aria-label="Cloud"
       style="font-style:normal;font-weight:normal;font-size:20.4029px;line-height:1.25;font-family:sans-serif;letter-spacing:0px;word-spacing:0px;fill:#808080;fill-opacity:1;stroke:none;stroke-width:0.510072"
       id="g101"
       transform="matrix(0.82284018,0,0,0.82284018,-45.245237,-707.27509)" />
  </g>
</svg>
