<?xml version="1.0" encoding="UTF-8" standalone="no"?>
<!--part of the matt icon theme by sixsixfive released under CC0 (https://creativecommons.org/publicdomain/zero/1.0/) on openclipart-->

<svg
   xmlns:dc="http://purl.org/dc/elements/1.1/"
   xmlns:cc="http://creativecommons.org/ns#"
   xmlns:rdf="http://www.w3.org/1999/02/22-rdf-syntax-ns#"
   xmlns:svg="http://www.w3.org/2000/svg"
   xmlns="http://www.w3.org/2000/svg"
   xmlns:xlink="http://www.w3.org/1999/xlink"
   xmlns:sodipodi="http://sodipodi.sourceforge.net/DTD/sodipodi-0.dtd"
   xmlns:inkscape="http://www.inkscape.org/namespaces/inkscape"
   viewBox="0 0 80 80"
   version="1.1"
   id="svg72"
   sodipodi:docname="folder.svg"
   width="80"
   height="80"
   inkscape:version="0.92.4 (5da689c313, 2019-01-14)">
  <metadata
     id="metadata76">
    <rdf:RDF>
      <cc:Work
         rdf:about="">
        <dc:format>image/svg+xml</dc:format>
        <dc:type
           rdf:resource="http://purl.org/dc/dcmitype/StillImage" />
        <dc:title />
      </cc:Work>
    </rdf:RDF>
  </metadata>
  <sodipodi:namedview
     pagecolor="#ffffff"
     bordercolor="#666666"
     borderopacity="1"
     objecttolerance="10"
     gridtolerance="10"
     guidetolerance="10"
     inkscape:pageopacity="0"
     inkscape:pageshadow="2"
     inkscape:window-width="1920"
     inkscape:window-height="1018"
     id="namedview74"
     showgrid="false"
     fit-margin-top="0"
     fit-margin-left="0"
     fit-margin-right="0"
     fit-margin-bottom="0"
     inkscape:zoom="7.4422989"
     inkscape:cx="-7.4481222"
     inkscape:cy="40"
     inkscape:window-x="0"
     inkscape:window-y="33"
     inkscape:window-maximized="1"
     inkscape:current-layer="svg72" />
  <defs
     id="0">
    <linearGradient
       id="A">
      <stop
         id="i" />
      <stop
         offset="1"
         id="j"
         stop-opacity="0" />
    </linearGradient>
    <linearGradient
       id="B">
      <stop
         id="k"
         stop-opacity="0.33" />
      <stop
         offset="1"
         id="l"
         stop-opacity="0" />
    </linearGradient>
    <linearGradient
       id="C">
      <stop
         id="m"
         stop-color="#fff" />
      <stop
         offset="1"
         id="n"
         stop-color="#fff"
         stop-opacity="0" />
    </linearGradient>
    <linearGradient
       id="D">
      <stop
         id="o"
         stop-color="#e8ba00" />
      <stop
         offset="1"
         id="p"
         stop-color="#d19f00" />
    </linearGradient>
    <linearGradient
       id="E">
      <stop
         id="q"
         stop-color="#eee" />
      <stop
         offset="1"
         id="r"
         stop-color="#ddd" />
    </linearGradient>
    <radialGradient
       xlink:href="#E"
       id="F"
       cx="36.793999"
       cy="62.080002"
       r="55.765999"
       gradientTransform="matrix(0.7667623,-0.104838,0.05399168,0.3948832,10.082408,-2.9781214)"
       gradientUnits="userSpaceOnUse" />
    <radialGradient
       xlink:href="#D"
       id="G"
       cx="28.02"
       cy="16.985001"
       r="62.200001"
       gradientTransform="matrix(1.5841217,-0.2442028,0.1394764,0.9047707,-16.750946,26.630343)"
       gradientUnits="userSpaceOnUse" />
    <filter
       id="H"
       x="-0.012"
       width="1.025"
       y="-0.396"
       height="1.7920001">
      <feGaussianBlur
         stdDeviation="0.59926"
         id="s" />
    </filter>
    <linearGradient
       xlink:href="#A"
       id="I"
       y1="29.320999"
       x2="0"
       y2="25.688"
       gradientUnits="userSpaceOnUse" />
    <radialGradient
       xlink:href="#C"
       id="J"
       cx="52.980999"
       cy="-3.2449999"
       r="53.549999"
       gradientTransform="matrix(1.8022603,0.02656491,-0.01237284,0.8394186,-30.322336,8.4010665)"
       gradientUnits="userSpaceOnUse" />
    <radialGradient
       xlink:href="#C"
       id="K"
       cx="58"
       cy="-21.826"
       r="59.896"
       gradientTransform="matrix(1.9737017,-0.04274788,0.01357032,0.6265521,-54.434832,27.088068)"
       gradientUnits="userSpaceOnUse" />
    <linearGradient
       xlink:href="#B"
       id="L"
       y1="109.56"
       x2="0"
       y2="101.48"
       gradientUnits="userSpaceOnUse" />
    <radialGradient
       xlink:href="#A"
       id="M"
       cx="65.139999"
       cy="106.7"
       r="63.150002"
       gradientTransform="matrix(1,0,0,0.05882353,0,100.42419)"
       gradientUnits="userSpaceOnUse" />
    <filter
       id="N">
      <feGaussianBlur
         stdDeviation="1.88808"
         id="t" />
    </filter>
    <filter
       id="O"
       x="-0.02"
       width="1.041"
       y="-0.345"
       height="1.689">
      <feGaussianBlur
         stdDeviation="1.06662"
         id="u" />
    </filter>
    <radialGradient
       gradientUnits="userSpaceOnUse"
       gradientTransform="matrix(1,0,0,0.6934113,0,21.288755)"
       r="58.813"
       cy="38.049999"
       cx="18.796"
       id="P"
       xlink:href="#f" />
    <linearGradient
       gradientTransform="rotate(45,71.842071,230.71832)"
       x2="67.25"
       x1="23.25"
       gradientUnits="userSpaceOnUse"
       id="Q"
       xlink:href="#T" />
    <linearGradient
       gradientTransform="translate(142.10043,-118.37585)"
       y2="19.412001"
       x2="73.876999"
       y1="-8.2349997"
       x1="32.907001"
       gradientUnits="userSpaceOnUse"
       id="R"
       xlink:href="#U" />
    <linearGradient
       gradientTransform="matrix(2.5134126,0,0,2.5134126,-16.429199,6.2507921)"
       y2="57.979"
       x2="52.764"
       y1="13.392"
       x1="23.681999"
       gradientUnits="userSpaceOnUse"
       id="S"
       xlink:href="#T" />
    <linearGradient
       id="T">
      <stop
         id="v"
         stop-color="#803f00" />
      <stop
         id="w"
         offset="1"
         stop-color="#6e3600" />
    </linearGradient>
    <linearGradient
       id="U">
      <stop
         id="x"
         stop-color="#f4ba00" />
      <stop
         id="y"
         offset="1"
         stop-color="#fe9e00" />
    </linearGradient>
    <filter
       id="V">
      <feGaussianBlur
         id="z"
         stdDeviation="0.59285" />
    </filter>
    <linearGradient
       x1="23.25"
       x2="67.25"
       id="W"
       gradientUnits="userSpaceOnUse"
       xlink:href="#T" />
    <linearGradient
       x1="32.907001"
       y1="-8.2349997"
       x2="73.876999"
       y2="19.412001"
       id="X"
       gradientUnits="userSpaceOnUse"
       xlink:href="#U" />
    <linearGradient
       x1="23.681999"
       y1="13.392"
       x2="52.764"
       y2="57.979"
       id="Y"
       gradientUnits="userSpaceOnUse"
       xlink:href="#T" />
    <linearGradient
       gradientTransform="translate(0,-1.4)"
       y2="15.219"
       x2="0"
       y1="111"
       gradientUnits="userSpaceOnUse"
       id="Z"
       xlink:href="#e" />
    <linearGradient
       id="a"
       y1="111"
       x2="0"
       y2="15.219"
       gradientUnits="userSpaceOnUse"
       xlink:href="#d" />
    <linearGradient
       id="b"
       y1="24.819"
       x2="0"
       y2="63.110001"
       gradientUnits="userSpaceOnUse"
       xlink:href="#c" />
    <linearGradient
       id="c">
      <stop
         id="10"
         stop-color="#e3e3e3" />
      <stop
         id="11"
         offset="1"
         stop-color="#b3b3b3" />
    </linearGradient>
    <linearGradient
       id="d">
      <stop
         id="12"
         stop-color="#bbb" />
      <stop
         id="13"
         offset="1"
         stop-color="#adadad" />
    </linearGradient>
    <linearGradient
       id="e">
      <stop
         id="14"
         stop-color="#5e5e5e" />
      <stop
         offset="1"
         id="15"
         stop-color="#a1a1a1" />
    </linearGradient>
    <linearGradient
       id="f">
      <stop
         id="16"
         stop-color="#e3ad00" />
      <stop
         id="17"
         offset="1"
         stop-color="#c99900" />
    </linearGradient>
    <linearGradient
       xlink:href="#d"
       id="g"
       gradientUnits="userSpaceOnUse"
       y1="111"
       x2="0"
       y2="15.219"
       gradientTransform="translate(-209.28039,-37.531989)" />
    <linearGradient
       xlink:href="#e"
       id="h"
       gradientUnits="userSpaceOnUse"
       gradientTransform="translate(-209.28039,-38.931989)"
       y1="111"
       x2="0"
       y2="15.219" />
  </defs>
  <rect
     style="opacity:1;fill:none;fill-opacity:1;fill-rule:evenodd;stroke:none;stroke-width:10.47115898;stroke-miterlimit:4;stroke-dasharray:none;stroke-opacity:1"
     id="rect881"
     width="80"
     height="80"
     x="-3.0371095e-07"
     y="-1.9775391e-07" />
  <g
     id="g895"
     transform="matrix(0.64088868,0,0,0.64088868,-1.0633028,-0.12975895)">
    <path
       transform="matrix(1.1470588,0,0,1,-10.715034,-0.7429983)"
       d="m 128.29104,106.70071 a 63.154858,3.7149916 0 1 1 -126.3097129,0 63.154858,3.7149916 0 1 1 126.3097129,0 z"
       id="1"
       style="opacity:0.54100001;fill:url(#M);stroke-width:1.949;stroke-linecap:round;stroke-linejoin:bevel;filter:url(#O)"
       inkscape:connector-curvature="0" />
    <path
       transform="matrix(0.9652278,0,0,0.9652278,2.9590038,0.385754)"
       d="m 17.78125,11.09375 c -3.388298,0 -6.1875,2.799208 -6.1875,6.1875 v 3.9375 c -2.9224036,0.486036 -5.21875,2.95177 -5.21875,6 v 76.09375 c 6e-7,3.38829 2.7991985,6.1875 6.1875,6.1875 H 116.375 c 3.3883,0 6.21875,-2.77627 6.21875,-6.1875 V 27.21875 c 0,-3.411225 -2.83045,-6.1875 -6.21875,-6.1875 H 56.59375 v -3.75 c 0,-3.388299 -2.799205,-6.1875 -6.1875,-6.1875 z"
       id="2"
       inkscape:connector-curvature="0"
       style="fill:#898989;stroke-width:2;stroke-linecap:round;stroke-linejoin:bevel" />
    <path
       id="3"
       d="m 20.114824,13.348291 c -2.058203,0 -3.710094,1.651896 -3.710094,3.710095 v 5.881857 h -1.327188 c -2.058204,0 -3.710095,1.651896 -3.710095,3.710094 v 73.447803 c 0,2.05819 1.651891,3.71009 3.710095,3.71009 H 115.28026 c 2.05819,0 3.74026,-1.6519 3.74026,-3.71009 V 26.650337 c 0,-2.058198 -1.68206,-3.710094 -3.74026,-3.710094 H 55.315476 v -5.881857 c 0,-2.058198 -1.651901,-3.710095 -3.710094,-3.710095 z"
       style="fill:url(#F);stroke-width:2;stroke-linecap:round;stroke-linejoin:bevel"
       inkscape:connector-curvature="0" />
    <path
       d="m 20.125,14.625 c -1.366107,0 -2.4375,1.071396 -2.4375,2.4375 v 5.875 c -0.0031,0.706334 -0.574916,1.278169 -1.28125,1.28125 H 15.0625 c -1.366108,0 -2.40625,1.058373 -2.40625,2.4375 v 73.4375 c 0,1.37912 1.040145,2.4375 2.40625,2.4375 h 100.21875 c 1.36609,0 2.46875,-1.08444 2.46875,-2.4375 v -73.4375 c 0,-1.353076 -1.10265,-2.4375 -2.46875,-2.4375 H 55.3125 c -0.706334,-0.0031 -1.278169,-0.574916 -1.28125,-1.28125 v -5.875 c 10e-7,-1.366097 -1.071406,-2.4375 -2.4375,-2.4375 z"
       id="4"
       style="fill:none;stroke:url(#J);stroke-width:2;stroke-linecap:round;stroke-linejoin:bevel"
       inkscape:connector-curvature="0" />
    <path
       transform="matrix(0.9652278,0,0,1.3063538,2.9590038,-9.6164018)"
       id="5"
       d="M 122.21875,25.687905 6.375,25.711212 v 3.338334 c 6e-7,0.148649 2.7991985,0.271454 6.1875,0.271454 H 116.375 c 3.3883,0 6.21875,-0.121799 6.21875,-0.271454 v -3.338334 c 0,-0.0075 -0.0174,-0.0146 -0.0313,-0.02194 -0.11616,-3.06e-4 -0.22602,-0.0014 -0.34375,-0.0014 z"
       style="opacity:0.42900002;fill:url(#I);stroke-width:1.949;stroke-linecap:round;stroke-linejoin:bevel;filter:url(#H)"
       inkscape:connector-curvature="0" />
    <path
       transform="matrix(0.9652278,0,0,0.9652278,2.9590038,0.385754)"
       d="M 122.21875,26.6875 4.875,27.21875 c -3.2470681,0 -5.9375,2.690433 -5.9375,5.9375 -0.00108,0.04166 -0.00108,0.08334 0,0.125 L 2.59375,103.625 v 0.125 H 2.625 c 0.072883,3.21136 2.7347163,5.8125 5.9375,5.8125 H 120.375 c 3.24707,0 5.9375,-2.69043 5.9375,-5.9375 l 1.84375,-70.9375 c 2.7e-4,-0.02083 2.7e-4,-0.04167 0,-0.0625 0,-3.247067 -2.69043,-5.9375 -5.9375,-5.9375 z"
       id="6"
       inkscape:connector-curvature="0"
       style="fill:#b88c00;stroke-width:1.949;stroke-linecap:round;stroke-linejoin:bevel" />
    <path
       id="7"
       d="M 7.6709722,28.976586 120.91382,28.452911 c 1.89221,0 3.41556,1.523335 3.41556,3.415548 l -1.7598,68.541721 c 0,1.89221 -1.52334,3.41554 -3.41555,3.41554 H 11.208822 c -1.8922133,0 -3.4155458,-1.52333 -3.4155458,-3.41554 L 4.2554238,32.392135 c 0,-1.892214 1.5233351,-3.415549 3.4155484,-3.415549 z"
       style="fill:url(#G);stroke-width:1.949;stroke-linecap:round;stroke-linejoin:bevel"
       inkscape:connector-curvature="0" />
    <path
       d="m 120.90625,29.5625 -113.25,0.53125 c -1.2733918,0 -2.2812501,1.026593 -2.28125,2.3125 l 3.53125,67.9375 c 5.728e-4,0.0208 5.728e-4,0.0417 0,0.0625 0,1.27339 1.0265955,2.28125 2.3125,2.28125 h 107.9375 c 1.2859,0 2.28125,-0.99535 2.28125,-2.28125 -1.4e-4,-0.0104 -1.4e-4,-0.0208 0,-0.0313 l 1.78125,-68.53125 c 0,-1.273389 -1.03911,-2.28125 -2.3125,-2.28125 z"
       id="8"
       style="fill:none;stroke:url(#K);stroke-width:1.949;stroke-linecap:round;stroke-linejoin:bevel"
       inkscape:connector-curvature="0" />
    <path
       id="9"
       d="M 122.21875,26.6875 4.875,27.21875 c -3.2470681,0 -5.9375,2.690433 -5.9375,5.9375 -0.00108,0.04166 -0.00108,0.08334 0,0.125 L 2.59375,103.625 v 0.125 H 2.625 c 0.072883,3.21136 2.7347163,5.8125 5.9375,5.8125 H 120.375 c 3.24707,0 5.9375,-2.69043 5.9375,-5.9375 l 1.84375,-70.9375 c 2.7e-4,-0.02083 2.7e-4,-0.04167 0,-0.0625 0,-3.247067 -2.69043,-5.9375 -5.9375,-5.9375 z"
       transform="matrix(0.9652278,0,0,0.9652278,2.9590038,0.385754)"
       style="fill:url(#L);stroke-width:1.949;stroke-linecap:round;stroke-linejoin:bevel;filter:url(#N)"
       inkscape:connector-curvature="0" />
  </g>
</svg>
